<?xml version="1.0" encoding="UTF-8"?>
<svg width="917px" height="318px" viewBox="0 0 917 318" version="1.1" xmlns="http://www.w3.org/2000/svg" xmlns:xlink="http://www.w3.org/1999/xlink">
    <title>soigné copy 4</title>
    <g id="Page-2" stroke="none" stroke-width="1" fill="none" fill-rule="evenodd">
        <g id="soigné-copy-4" transform="translate(0.6, 0.8)" fill="#000000" fill-rule="nonzero">
            <path d="M135.3,198 C135.3,215.6 129.35,228.85 117.45,237.75 C105.55,246.65 88.9,251.1 67.5,251.1 C55.5,251.1 43.85,249.5 32.55,246.3 C21.25,243.1 13,239.9 7.8,236.7 L2.27373675e-13,231.9 L18,198.3 C19.6,199.3 21.9,200.65 24.9,202.35 C27.9,204.05 33.7,206.25 42.3,208.95 C50.9,211.65 59.3,213 67.5,213 C77.5,213 84.25,211.7 87.75,209.1 C91.25,206.5 93,203 93,198.6 C93,194.2 89.95,190.45 83.85,187.35 C77.75,184.25 70.35,181.4 61.65,178.8 C52.95,176.2 44.25,173.2 35.55,169.8 C26.85,166.4 19.45,161.3 13.35,154.5 C7.25,147.7 4.2,139.4 4.2,129.6 C4.2,112.8 10.5,99.8 23.1,90.6 C35.7,81.4 50.8,76.8 68.4,76.8 C79.2,76.8 89.65,78.45 99.75,81.75 C109.85,85.05 117.2,88.4 121.8,91.8 L128.7,96.6 L111.6,129 C110.2,128 108.3,126.75 105.9,125.25 C103.5,123.75 98.5,121.7 90.9,119.1 C83.3,116.5 75.8,115.2 68.4,115.2 C54,115.2 46.8,119.4 46.8,127.8 C46.8,131.2 49.85,134.25 55.95,136.95 C62.05,139.65 69.45,142.3 78.15,144.9 C86.85,147.5 95.5,150.65 104.1,154.35 C112.7,158.05 120.05,163.6 126.15,171 C132.25,178.4 135.3,187.4 135.3,198 Z" id="Path"></path>
            <path d="M173.1,101.4 C189.5,85 209.9,76.8 234.3,76.8 C258.7,76.8 279.1,84.95 295.5,101.25 C311.9,117.55 320.1,138.4 320.1,163.8 C320.1,189.2 311.9,210.1 295.5,226.5 C279.1,242.9 258.7,251.1 234.3,251.1 C209.9,251.1 189.5,242.9 173.1,226.5 C156.7,210.1 148.5,189.2 148.5,163.8 C148.5,138.4 156.7,117.6 173.1,101.4 Z M265.2,129.3 C257,120.3 246.7,115.8 234.3,115.8 C221.9,115.8 211.55,120.3 203.25,129.3 C194.95,138.3 190.8,149.8 190.8,163.8 C190.8,177.8 194.95,189.35 203.25,198.45 C211.55,207.55 221.9,212.1 234.3,212.1 C246.7,212.1 257,207.55 265.2,198.45 C273.4,189.35 277.5,177.8 277.5,163.8 C277.5,149.8 273.4,138.3 265.2,129.3 Z" id="Shape"></path>
            <path d="M344.4,25.5 C348.8,21.3 354.4,19.2 361.2,19.2 C368,19.2 373.6,21.3 378,25.5 C382.4,29.7 384.6,35.4 384.6,42.6 C384.6,49.8 382.4,55.5 378,59.7 C373.6,63.9 368,66 361.2,66 C354.4,66 348.8,63.9 344.4,59.7 C340,55.5 337.8,49.8 337.8,42.6 C337.8,35.4 340,29.7 344.4,25.5 Z M339.3,80.4 L383.1,80.4 L383.1,247.2 L339.3,247.2 L339.3,80.4 Z" id="Shape"></path>
            <path d="M569.7,76.5 L569.7,110.7 C569.7,110.7 568.3,110.7 565.5,110.7 C552.7,110.7 546.3,113.4 546.3,118.8 C546.9,121.6 547.2,126.1 547.2,132.3 C547.2,150.3 541.3,164 529.5,173.4 C517.7,182.8 501.2,187.5 480,187.5 C469.2,187.5 460.1,186.4 452.7,184.2 C450.9,187 450,190.2 450,193.8 C450,196.8 451.1,199.05 453.3,200.55 C455.5,202.05 457.85,202.95 460.35,203.25 C462.85,203.55 466.4,203.7 471,203.7 L480,203.7 C491.6,203.7 502.2,204.6 511.8,206.4 C521.4,208.2 530.5,211.1 539.1,215.1 C547.7,219.1 554.45,225 559.35,232.8 C564.25,240.6 566.7,250 566.7,261 C566.7,298.2 537.8,316.8 480,316.8 C422.2,316.8 393.3,298.2 393.3,261 C393.3,244 403.3,231.5 423.3,223.5 C417.5,217.1 414.6,209.6 414.6,201 C414.6,189.4 421.2,181.1 434.4,176.1 C420,166.3 412.8,151.7 412.8,132.3 C412.8,114.3 418.7,100.55 430.5,91.05 C442.3,81.55 458.8,76.8 480,76.8 C501.8,76.8 518.6,81.8 530.4,91.8 C538,81.6 551.1,76.5 569.7,76.5 Z M497.4,115.8 C493,112.2 487.2,110.4 480,110.4 C472.8,110.4 467,112.2 462.6,115.8 C458.2,119.4 456,124.9 456,132.3 C456,146.7 464,153.9 480,153.9 C487.2,153.9 493.05,152.15 497.55,148.65 C502.05,145.15 504.3,139.7 504.3,132.3 C504.3,124.9 502,119.4 497.4,115.8 Z M487.8,242.7 L487.2,242.7 L480,242.7 L479.1,242.7 C473.7,242.7 469.55,242.75 466.65,242.85 C463.75,242.95 460.05,243.3 455.55,243.9 C451.05,244.5 447.65,245.4 445.35,246.6 C443.05,247.8 441,249.6 439.2,252 C437.4,254.4 436.5,257.4 436.5,261 C436.5,265.6 437.7,269.4 440.1,272.4 C442.5,275.4 446.05,277.6 450.75,279 C455.45,280.4 459.95,281.3 464.25,281.7 C468.55,282.1 473.8,282.3 480,282.3 C486.2,282.3 491.45,282.1 495.75,281.7 C500.05,281.3 504.5,280.4 509.1,279 C513.7,277.6 517.2,275.4 519.6,272.4 C522,269.4 523.2,265.6 523.2,261 C523.2,253.4 520.15,248.45 514.05,246.15 C507.95,243.85 499.2,242.7 487.8,242.7 Z" id="Shape"></path>
            <path d="M676.8,76.8 C692,76.8 705.45,82.4 717.15,93.6 C728.85,104.8 734.7,119.6 734.7,138 L734.7,138.6 L734.7,247.2 L690.9,247.2 L690.9,156.3 C690.9,130.1 681.3,117 662.1,117 C652.7,117 644.55,119.05 637.65,123.15 C630.75,127.25 625.8,132.9 622.8,140.1 L622.8,247.2 L579,247.2 L579,80.4 L622.8,80.4 L622.8,103.2 C629.2,95 637.35,88.55 647.25,83.85 C657.15,79.15 667,76.8 676.8,76.8 Z" id="Path"></path>
            <path d="M846,0 L886.5,0 L854.4,61.5 L826.2,61.5 L846,0 Z M838.8,76.8 C860.6,76.8 878.95,84.15 893.85,98.85 C908.75,113.55 916.2,134.6 916.2,162 C916.2,168 916,172.6 915.6,175.8 L796.2,175.8 C798.2,186.8 803.05,195.55 810.75,202.05 C818.45,208.55 827.6,211.8 838.2,211.8 C854,211.8 866,205.1 874.2,191.7 L911.7,210.6 C904.1,223.2 893.9,233.1 881.1,240.3 C868.3,247.5 854,251.1 838.2,251.1 C813.8,251.1 793.4,242.9 777,226.5 C760.6,210.1 752.4,189.2 752.4,163.8 C752.4,138.4 760.7,117.55 777.3,101.25 C793.9,84.95 814.4,76.8 838.8,76.8 Z M838.2,115.8 C829.6,115.8 821.8,118.15 814.8,122.85 C807.8,127.55 802.6,134 799.2,142.2 L872.4,142.2 C872.4,136 869.75,130.05 864.45,124.35 C859.15,118.65 850.4,115.8 838.2,115.8 Z" id="Shape"></path>
        </g>
    </g>
</svg>