<svg width="301" height="301" viewBox="0 0 301 301" fill="none" xmlns="http://www.w3.org/2000/svg">
<g clip-path="url(#clip0_110_49)">
<path fill-rule="evenodd" clip-rule="evenodd" d="M150.5 0C153.24 0 155.963 0.0732208 158.667 0.217812L142.8 49.5H171L193.572 6.25394C255.702 24.7789 301 82.3495 301 150.5C301 233.619 233.619 301 150.5 301C67.3811 301 0 233.619 0 150.5C0 67.3811 67.3811 0 150.5 0ZM155.4 64.8C131 64.8 110.5 72.95 93.9 89.25C77.3 105.55 69 126.4 69 151.8C69 177.2 77.2 198.1 93.6 214.5C110 230.9 130.4 239.1 154.8 239.1C170.6 239.1 184.9 235.5 197.7 228.3C210.5 221.1 220.7 211.2 228.3 198.6L190.8 179.7C182.6 193.1 170.6 199.8 154.8 199.8C144.2 199.8 135.05 196.55 127.35 190.05C119.65 183.55 114.8 174.8 112.8 163.8H232.2C232.6 160.6 232.8 156 232.8 150C232.8 122.6 225.35 101.55 210.45 86.85C195.55 72.15 177.2 64.8 155.4 64.8ZM154.8 103.8C167 103.8 175.75 106.65 181.05 112.35C186.35 118.05 189 124 189 130.2H115.8C119.2 122 124.4 115.55 131.4 110.85C138.4 106.15 146.2 103.8 154.8 103.8Z" fill="black"/>
</g>
<defs>
<clipPath id="clip0_110_49">
<rect width="301" height="301" fill="white"/>
</clipPath>
</defs>
</svg>
